<mxfile host="app.diagrams.net" agent="Mozilla/5.0 (X11; Ubuntu; Linux x86_64; rv:132.0) Gecko/20100101 Firefox/132.0" version="26.0.9">
  <diagram name="Page-1" id="EGKdwo-o0g7yiCXG-iue">
    <mxGraphModel dx="1604" dy="795" grid="1" gridSize="10" guides="1" tooltips="1" connect="1" arrows="1" fold="1" page="1" pageScale="1" pageWidth="850" pageHeight="1100" math="0" shadow="0">
      <root>
        <mxCell id="0" />
        <mxCell id="1" parent="0" />
        <mxCell id="9OnENW9SxDU6O-8yHEg5-3" value="" style="edgeStyle=orthogonalEdgeStyle;rounded=0;orthogonalLoop=1;jettySize=auto;html=1;" edge="1" parent="1" source="9OnENW9SxDU6O-8yHEg5-1" target="9OnENW9SxDU6O-8yHEg5-2">
          <mxGeometry relative="1" as="geometry" />
        </mxCell>
        <mxCell id="9OnENW9SxDU6O-8yHEg5-1" value="INIZIO" style="ellipse;whiteSpace=wrap;html=1;" vertex="1" parent="1">
          <mxGeometry x="330" y="30" width="120" height="80" as="geometry" />
        </mxCell>
        <mxCell id="9OnENW9SxDU6O-8yHEg5-5" value="" style="edgeStyle=orthogonalEdgeStyle;rounded=0;orthogonalLoop=1;jettySize=auto;html=1;" edge="1" parent="1" source="9OnENW9SxDU6O-8yHEg5-2" target="9OnENW9SxDU6O-8yHEg5-4">
          <mxGeometry relative="1" as="geometry" />
        </mxCell>
        <mxCell id="9OnENW9SxDU6O-8yHEg5-2" value="&lt;div&gt;i = 0&lt;/div&gt;&lt;div&gt;count = 0&lt;br&gt;&lt;/div&gt;" style="whiteSpace=wrap;html=1;" vertex="1" parent="1">
          <mxGeometry x="330" y="200" width="120" height="60" as="geometry" />
        </mxCell>
        <mxCell id="9OnENW9SxDU6O-8yHEg5-7" value="" style="edgeStyle=orthogonalEdgeStyle;rounded=0;orthogonalLoop=1;jettySize=auto;html=1;" edge="1" parent="1" source="9OnENW9SxDU6O-8yHEg5-4" target="9OnENW9SxDU6O-8yHEg5-6">
          <mxGeometry relative="1" as="geometry" />
        </mxCell>
        <mxCell id="9OnENW9SxDU6O-8yHEg5-4" value="&quot;inserisci n&quot;" style="shape=parallelogram;perimeter=parallelogramPerimeter;whiteSpace=wrap;html=1;fixedSize=1;" vertex="1" parent="1">
          <mxGeometry x="330" y="340" width="120" height="60" as="geometry" />
        </mxCell>
        <mxCell id="9OnENW9SxDU6O-8yHEg5-9" value="" style="edgeStyle=orthogonalEdgeStyle;rounded=0;orthogonalLoop=1;jettySize=auto;html=1;" edge="1" parent="1" source="9OnENW9SxDU6O-8yHEg5-6" target="9OnENW9SxDU6O-8yHEg5-8">
          <mxGeometry relative="1" as="geometry" />
        </mxCell>
        <mxCell id="9OnENW9SxDU6O-8yHEg5-12" value="FALSE" style="edgeLabel;html=1;align=center;verticalAlign=middle;resizable=0;points=[];" vertex="1" connectable="0" parent="9OnENW9SxDU6O-8yHEg5-9">
          <mxGeometry x="-0.05" y="2" relative="1" as="geometry">
            <mxPoint as="offset" />
          </mxGeometry>
        </mxCell>
        <mxCell id="9OnENW9SxDU6O-8yHEg5-14" value="" style="edgeStyle=orthogonalEdgeStyle;rounded=0;orthogonalLoop=1;jettySize=auto;html=1;" edge="1" parent="1" source="9OnENW9SxDU6O-8yHEg5-6" target="9OnENW9SxDU6O-8yHEg5-13">
          <mxGeometry relative="1" as="geometry" />
        </mxCell>
        <mxCell id="9OnENW9SxDU6O-8yHEg5-20" value="TRUE" style="edgeLabel;html=1;align=center;verticalAlign=middle;resizable=0;points=[];" vertex="1" connectable="0" parent="9OnENW9SxDU6O-8yHEg5-14">
          <mxGeometry relative="1" as="geometry">
            <mxPoint as="offset" />
          </mxGeometry>
        </mxCell>
        <mxCell id="9OnENW9SxDU6O-8yHEg5-6" value="n&amp;gt;0" style="rhombus;whiteSpace=wrap;html=1;" vertex="1" parent="1">
          <mxGeometry x="350" y="470" width="80" height="80" as="geometry" />
        </mxCell>
        <mxCell id="9OnENW9SxDU6O-8yHEg5-11" value="" style="edgeStyle=orthogonalEdgeStyle;rounded=0;orthogonalLoop=1;jettySize=auto;html=1;entryX=0;entryY=0;entryDx=0;entryDy=0;entryPerimeter=0;" edge="1" parent="1" source="9OnENW9SxDU6O-8yHEg5-8" target="9OnENW9SxDU6O-8yHEg5-10">
          <mxGeometry relative="1" as="geometry">
            <mxPoint x="170" y="720" as="targetPoint" />
            <Array as="points">
              <mxPoint x="170" y="720" />
            </Array>
          </mxGeometry>
        </mxCell>
        <mxCell id="9OnENW9SxDU6O-8yHEg5-8" value="write &quot;error&quot;" style="whiteSpace=wrap;html=1;" vertex="1" parent="1">
          <mxGeometry x="110" y="480" width="120" height="60" as="geometry" />
        </mxCell>
        <mxCell id="9OnENW9SxDU6O-8yHEg5-31" value="" style="edgeStyle=orthogonalEdgeStyle;rounded=0;orthogonalLoop=1;jettySize=auto;html=1;" edge="1" parent="1" source="9OnENW9SxDU6O-8yHEg5-10" target="9OnENW9SxDU6O-8yHEg5-30">
          <mxGeometry relative="1" as="geometry" />
        </mxCell>
        <mxCell id="9OnENW9SxDU6O-8yHEg5-10" value="" style="shape=waypoint;sketch=0;size=6;pointerEvents=1;points=[];fillColor=default;resizable=0;rotatable=0;perimeter=centerPerimeter;snapToPoint=1;" vertex="1" parent="1">
          <mxGeometry x="380" y="710" width="20" height="20" as="geometry" />
        </mxCell>
        <mxCell id="9OnENW9SxDU6O-8yHEg5-16" value="" style="edgeStyle=orthogonalEdgeStyle;rounded=0;orthogonalLoop=1;jettySize=auto;html=1;" edge="1" parent="1" source="9OnENW9SxDU6O-8yHEg5-13" target="9OnENW9SxDU6O-8yHEg5-15">
          <mxGeometry relative="1" as="geometry" />
        </mxCell>
        <mxCell id="9OnENW9SxDU6O-8yHEg5-21" value="TRUE" style="edgeLabel;html=1;align=center;verticalAlign=middle;resizable=0;points=[];" vertex="1" connectable="0" parent="9OnENW9SxDU6O-8yHEg5-16">
          <mxGeometry x="-0.025" y="2" relative="1" as="geometry">
            <mxPoint as="offset" />
          </mxGeometry>
        </mxCell>
        <mxCell id="9OnENW9SxDU6O-8yHEg5-18" value="" style="edgeStyle=orthogonalEdgeStyle;rounded=0;orthogonalLoop=1;jettySize=auto;html=1;" edge="1" parent="1" source="9OnENW9SxDU6O-8yHEg5-13" target="9OnENW9SxDU6O-8yHEg5-17">
          <mxGeometry relative="1" as="geometry" />
        </mxCell>
        <mxCell id="9OnENW9SxDU6O-8yHEg5-19" value="FALSE" style="edgeLabel;html=1;align=center;verticalAlign=middle;resizable=0;points=[];" vertex="1" connectable="0" parent="9OnENW9SxDU6O-8yHEg5-18">
          <mxGeometry x="-0.1778" y="2" relative="1" as="geometry">
            <mxPoint as="offset" />
          </mxGeometry>
        </mxCell>
        <mxCell id="9OnENW9SxDU6O-8yHEg5-13" value="i&amp;lt;=10" style="rhombus;whiteSpace=wrap;html=1;" vertex="1" parent="1">
          <mxGeometry x="510" y="470" width="80" height="80" as="geometry" />
        </mxCell>
        <mxCell id="9OnENW9SxDU6O-8yHEg5-24" value="" style="edgeStyle=orthogonalEdgeStyle;rounded=0;orthogonalLoop=1;jettySize=auto;html=1;" edge="1" parent="1" source="9OnENW9SxDU6O-8yHEg5-15" target="9OnENW9SxDU6O-8yHEg5-23">
          <mxGeometry relative="1" as="geometry" />
        </mxCell>
        <mxCell id="9OnENW9SxDU6O-8yHEg5-26" value="TRUE" style="edgeLabel;html=1;align=center;verticalAlign=middle;resizable=0;points=[];" vertex="1" connectable="0" parent="9OnENW9SxDU6O-8yHEg5-24">
          <mxGeometry x="-0.2444" y="1" relative="1" as="geometry">
            <mxPoint as="offset" />
          </mxGeometry>
        </mxCell>
        <mxCell id="9OnENW9SxDU6O-8yHEg5-28" style="edgeStyle=orthogonalEdgeStyle;rounded=0;orthogonalLoop=1;jettySize=auto;html=1;exitX=1;exitY=0.5;exitDx=0;exitDy=0;" edge="1" parent="1" source="9OnENW9SxDU6O-8yHEg5-15">
          <mxGeometry relative="1" as="geometry">
            <mxPoint x="790" y="510" as="targetPoint" />
          </mxGeometry>
        </mxCell>
        <mxCell id="9OnENW9SxDU6O-8yHEg5-29" value="FALSE" style="edgeLabel;html=1;align=center;verticalAlign=middle;resizable=0;points=[];" vertex="1" connectable="0" parent="9OnENW9SxDU6O-8yHEg5-28">
          <mxGeometry x="-0.2594" y="-1" relative="1" as="geometry">
            <mxPoint as="offset" />
          </mxGeometry>
        </mxCell>
        <mxCell id="9OnENW9SxDU6O-8yHEg5-15" value="x%n==0" style="rhombus;whiteSpace=wrap;html=1;" vertex="1" parent="1">
          <mxGeometry x="670" y="470" width="80" height="80" as="geometry" />
        </mxCell>
        <mxCell id="9OnENW9SxDU6O-8yHEg5-17" value="read x" style="shape=parallelogram;perimeter=parallelogramPerimeter;whiteSpace=wrap;html=1;fixedSize=1;" vertex="1" parent="1">
          <mxGeometry x="480" y="690" width="120" height="60" as="geometry" />
        </mxCell>
        <mxCell id="9OnENW9SxDU6O-8yHEg5-22" style="edgeStyle=orthogonalEdgeStyle;rounded=0;orthogonalLoop=1;jettySize=auto;html=1;exitX=0;exitY=0.5;exitDx=0;exitDy=0;entryX=0.3;entryY=0.8;entryDx=0;entryDy=0;entryPerimeter=0;" edge="1" parent="1" source="9OnENW9SxDU6O-8yHEg5-17" target="9OnENW9SxDU6O-8yHEg5-10">
          <mxGeometry relative="1" as="geometry" />
        </mxCell>
        <mxCell id="9OnENW9SxDU6O-8yHEg5-27" style="edgeStyle=orthogonalEdgeStyle;rounded=0;orthogonalLoop=1;jettySize=auto;html=1;exitX=1;exitY=0.5;exitDx=0;exitDy=0;entryX=0.5;entryY=0;entryDx=0;entryDy=0;" edge="1" parent="1" source="9OnENW9SxDU6O-8yHEg5-23" target="9OnENW9SxDU6O-8yHEg5-13">
          <mxGeometry relative="1" as="geometry" />
        </mxCell>
        <mxCell id="9OnENW9SxDU6O-8yHEg5-23" value="count += 1" style="whiteSpace=wrap;html=1;" vertex="1" parent="1">
          <mxGeometry x="650" y="640" width="120" height="60" as="geometry" />
        </mxCell>
        <mxCell id="9OnENW9SxDU6O-8yHEg5-30" value="FINE" style="ellipse;whiteSpace=wrap;html=1;" vertex="1" parent="1">
          <mxGeometry x="330" y="810" width="120" height="80" as="geometry" />
        </mxCell>
      </root>
    </mxGraphModel>
  </diagram>
</mxfile>
